# xmcd CD database file
#
# Track frame offsets:
#	150
#	20256
#	40583
#	66711
#	84618
#	104037
#	123755
#	145362
#	167176
#	185183
#
# Disc length: 2603 seconds
#
# Revision: 1
# Processed by: cddbd v1.5.2PL0 Copyright (c) Steve Scherf et al.
# Submitted via: CDex 1.70beta2
#
DISCID=920a290a
DTITLE=Hank Becker and The Boogie Chillin - Chillin at Play
DYEAR=1999
DGENRE=Country
TTITLE0=Give Me The Blues
TTITLE1=Standing Around In The Rain
TTITLE2=Hot Sauce (Mambo Version)
TTITLE3=I Can't Give Up
TTITLE4=Bull Bream Blues
TTITLE5=Long Time Coming
TTITLE6=Henry's Truck
TTITLE7=Suburbia
TTITLE8=Dig
TTITLE9=Hot Sauce (Pig Meat)
EXTD=YEAR: 1999
EXTT0=
EXTT1=
EXTT2=
EXTT3=
EXTT4=
EXTT5=
EXTT6=
EXTT7=
EXTT8=
EXTT9=
PLAYORDER=
